<svg width="32" height="32" viewBox="0 0 32 32" fill="none" xmlns="http://www.w3.org/2000/svg">
    <path d="M16.4974 8.89347V7.88277C17.3723 7.76235 18.1688 7.31432 18.726 6.62921C19.2832 5.94411 19.5595 5.07302 19.4992 4.192C19.4388 3.31097 19.0463 2.48571 18.4009 1.88299C17.7554 1.28027 16.9053 0.94503 16.0222 0.94503C15.1391 0.94503 14.2889 1.28027 13.6435 1.88299C12.9981 2.48571 12.6055 3.31097 12.5452 4.192C12.4848 5.07302 12.7612 5.94411 13.3184 6.62921C13.8756 7.31432 14.6721 7.76235 15.5469 7.88277V8.87446C12.6556 8.99873 9.92804 10.2506 7.94867 12.3618C5.9693 14.473 4.89565 17.2756 4.9578 20.1689C5.01995 23.0622 6.21296 25.816 8.28117 27.8403C10.3494 29.8645 13.1282 30.9981 16.0222 30.9981C18.9162 30.9981 21.695 29.8645 23.7632 27.8403C25.8314 25.816 27.0244 23.0622 27.0866 20.1689C27.1487 17.2756 26.0751 14.473 24.0957 12.3618C22.1163 10.2506 19.3887 8.99873 16.4974 8.87446V8.89347ZM13.4653 4.43564C13.4649 3.95457 13.6013 3.48329 13.8587 3.07687C14.1161 2.67045 14.4839 2.34568 14.919 2.1405C15.3541 1.93533 15.8386 1.85822 16.316 1.91819C16.7933 1.97816 17.2437 2.17273 17.6145 2.47917C17.9854 2.78561 18.2614 3.19126 18.4102 3.64872C18.5591 4.10618 18.5747 4.59657 18.4552 5.06257C18.3358 5.52857 18.0861 5.95095 17.7355 6.28035C17.3849 6.60975 16.9478 6.83257 16.4752 6.92277V5.54139C16.4744 5.41589 16.424 5.29582 16.3349 5.20738C16.2459 5.11894 16.1255 5.0693 16 5.06931C15.9373 5.0693 15.8753 5.0817 15.8174 5.10578C15.7595 5.12986 15.707 5.16515 15.6628 5.20962C15.6187 5.25409 15.5837 5.30685 15.56 5.36488C15.5363 5.42291 15.5243 5.48505 15.5248 5.54772V6.92594C14.9453 6.81534 14.4226 6.50611 14.0467 6.05154C13.6708 5.59697 13.4652 5.02552 13.4653 4.43564ZM15.8416 30.099C13.8364 30.099 11.8762 29.5044 10.2089 28.3903C8.54159 27.2763 7.2421 25.6929 6.47473 23.8403C5.70736 21.9877 5.50658 19.9491 5.89778 17.9825C6.28898 16.0158 7.25459 14.2092 8.6725 12.7913C10.0904 11.3734 11.8969 10.4078 13.8636 10.0166C15.8303 9.62539 17.8689 9.82617 19.7215 10.5935C21.5741 11.3609 23.1575 12.6604 24.2715 14.3277C25.3856 15.995 25.9802 17.9552 25.9802 19.9604C25.9802 22.6493 24.912 25.2281 23.0107 27.1295C21.1093 29.0308 18.5305 30.099 15.8416 30.099Z" fill="#393F35"/>
    <path d="M18.6614 17.581V17.5588C18.6143 17.453 18.5296 17.3683 18.4238 17.3212H18.4016L11.1145 14.7612C11.0307 14.7208 10.9369 14.7058 10.8448 14.7182C10.7526 14.7305 10.6661 14.7696 10.5959 14.8307C10.5258 14.8917 10.475 14.972 10.4501 15.0616C10.4251 15.1512 10.427 15.2461 10.4554 15.3347L13.0154 22.6218V22.644C13.0626 22.7498 13.1472 22.8345 13.2531 22.8816H13.2752L20.5624 25.4416C20.6133 25.4591 20.6669 25.4676 20.7208 25.4669C20.797 25.4672 20.8721 25.4492 20.9399 25.4144C21.0076 25.3795 21.066 25.3289 21.1101 25.2668C21.1542 25.2047 21.1828 25.1329 21.1933 25.0574C21.2038 24.982 21.1961 24.9051 21.1707 24.8333L18.6614 17.581ZM17.3434 17.9358L13.6713 21.6048L11.6911 15.9525L17.3434 17.9358ZM14.3461 22.2764L18.015 18.6075L19.9952 24.2598L14.3461 22.2764Z" fill="#393F35"/>
</svg>
