<svg width="20" height="21" viewBox="0 0 20 21" fill="none" xmlns="http://www.w3.org/2000/svg">
    <path d="M18 2.83333V14.3333H4.8L4.2 14.8604L2 16.8729V2.83333H18ZM19 0.916668H1C0.734783 0.916668 0.48043 1.01763 0.292893 1.19736C0.105357 1.37708 0 1.62084 0 1.875V19.125C0 19.3792 0.105357 19.6229 0.292893 19.8026C0.48043 19.9824 0.734783 20.0833 1 20.0833C1.26377 20.0797 1.51537 19.9764 1.7 19.7958L5.6 16.25H19C19.2652 16.25 19.5196 16.149 19.7071 15.9693C19.8946 15.7896 20 15.5458 20 15.2917V1.875C20 1.62084 19.8946 1.37708 19.7071 1.19736C19.5196 1.01763 19.2652 0.916668 19 0.916668Z" fill="#393F35" fill-opacity="0.6"/>
</svg>
