<svg width="32" height="32" viewBox="0 0 32 32" fill="none" xmlns="http://www.w3.org/2000/svg">
    <path d="M26.3351 26.9307H5.74099C5.61495 26.9307 5.49407 26.8806 5.40494 26.7915C5.31582 26.7024 5.26575 26.5815 5.26575 26.4554C5.26575 20.4356 10.0974 15.5248 16.038 15.5248C21.9786 15.5248 26.8103 20.4293 26.8103 26.4554C26.8103 26.5815 26.7602 26.7024 26.6711 26.7915C26.582 26.8806 26.4611 26.9307 26.3351 26.9307ZM6.22892 25.9802H25.8503C25.6063 20.6954 21.2974 16.4752 16.0285 16.4752C10.7596 16.4752 6.47288 20.6954 6.22892 25.9802Z" fill="#4DE87D"/>
    <path d="M16.1584 14.2574C14.8425 14.2574 13.5561 13.8672 12.4619 13.1361C11.3678 12.405 10.515 11.3659 10.0114 10.1501C9.50783 8.93437 9.37607 7.59658 9.63279 6.30593C9.88952 5.01529 10.5232 3.82975 11.4537 2.89925C12.3842 1.96875 13.5697 1.33506 14.8604 1.07834C16.151 0.821614 17.4888 0.953375 18.7046 1.45696C19.9203 1.96054 20.9595 2.81334 21.6906 3.90749C22.4217 5.00165 22.8119 6.28803 22.8119 7.60396C22.8119 9.36857 22.1109 11.0609 20.8631 12.3087C19.6154 13.5564 17.923 14.2574 16.1584 14.2574ZM16.1584 1.90099C15.0305 1.90099 13.9279 2.23546 12.99 2.86211C12.0522 3.48876 11.3212 4.37945 10.8896 5.42153C10.4579 6.46361 10.345 7.61029 10.565 8.71655C10.7851 9.82282 11.3282 10.839 12.1258 11.6366C12.9234 12.4341 13.9395 12.9773 15.0458 13.1973C16.1521 13.4174 17.2988 13.3045 18.3408 12.8728C19.3829 12.4412 20.2736 11.7102 20.9003 10.7724C21.5269 9.83451 21.8614 8.7319 21.8614 7.60396C21.8614 6.09144 21.2605 4.64087 20.191 3.57135C19.1215 2.50184 17.6709 1.90099 16.1584 1.90099Z" fill="#4DE87D"/>
    <path d="M16.038 20.0459C13.8493 20.0484 11.701 19.4571 9.82179 18.335C9.72061 18.2672 9.64937 18.163 9.62278 18.0441C9.5962 17.9252 9.61629 17.8006 9.67892 17.6961C9.74154 17.5916 9.84192 17.5151 9.9593 17.4825C10.0767 17.4499 10.2021 17.4636 10.3097 17.5208C12.0419 18.5538 14.0212 19.0991 16.038 19.0991C18.0548 19.0991 20.0341 18.5538 21.7663 17.5208C21.8199 17.4849 21.8801 17.4602 21.9435 17.4483C22.0068 17.4365 22.0719 17.4376 22.1348 17.4516C22.1977 17.4657 22.2571 17.4924 22.3094 17.5302C22.3616 17.5679 22.4057 17.6159 22.4388 17.6712C22.4719 17.7264 22.4935 17.7879 22.5021 17.8518C22.5107 17.9156 22.5063 17.9806 22.489 18.0427C22.4718 18.1048 22.442 18.1628 22.4017 18.213C22.3613 18.2633 22.3112 18.3048 22.2543 18.335C20.3751 19.4571 18.2267 20.0484 16.038 20.0459Z" fill="#4DE87D"/>
    <path d="M21.9881 6.13069C21.3163 6.15301 20.6474 6.03333 20.025 5.77946C19.4026 5.52559 18.8408 5.14325 18.3762 4.65743C17.6579 5.06481 16.8931 5.38396 16.0982 5.60792C14.0451 6.16871 12.2107 5.8804 10.7913 4.77465C10.6917 4.69735 10.6269 4.58365 10.6112 4.45858C10.5954 4.3335 10.63 4.2073 10.7073 4.10772C10.7846 4.00815 10.8983 3.94336 11.0234 3.92762C11.1485 3.91187 11.2747 3.94646 11.3743 4.02376C14.2257 6.24158 18.183 3.67842 18.221 3.6499C18.2736 3.61465 18.3327 3.59026 18.3949 3.57818C18.4571 3.5661 18.521 3.56657 18.583 3.57956C18.645 3.59254 18.7038 3.61779 18.7558 3.65381C18.8079 3.68983 18.8523 3.7359 18.8863 3.78931C18.9212 3.84317 19.8368 5.1897 21.9818 5.1897C22.1078 5.1897 22.2287 5.23977 22.3178 5.3289C22.407 5.41803 22.457 5.53891 22.457 5.66495C22.457 5.79099 22.407 5.91188 22.3178 6.001C22.2287 6.09013 22.1078 6.1402 21.9818 6.1402L21.9881 6.13069Z" fill="#4DE87D"/>
</svg>
