<svg width="24" height="23" viewBox="0 0 24 23" fill="none" xmlns="http://www.w3.org/2000/svg">
    <path d="M8.43565 9.79208H6.53466C6.44013 9.79208 6.34947 9.82807 6.28262 9.89213C6.21578 9.95619 6.17822 10.0431 6.17822 10.1337V11.9555C6.17822 12.046 6.21578 12.1329 6.28262 12.197C6.34947 12.261 6.44013 12.297 6.53466 12.297H8.43565C8.53018 12.297 8.62084 12.261 8.68769 12.197C8.75453 12.1329 8.79208 12.046 8.79208 11.9555V10.1337C8.79208 10.0431 8.75453 9.95619 8.68769 9.89213C8.62084 9.82807 8.53018 9.79208 8.43565 9.79208ZM8.07921 11.6139H6.89109V10.4753H8.07921V11.6139Z" fill="#393F35" fill-opacity="0.8"/>
    <path d="M12.9505 9.79208H11.0495C10.955 9.79208 10.8643 9.82807 10.7975 9.89213C10.7306 9.95619 10.6931 10.0431 10.6931 10.1337V11.9555C10.6931 12.046 10.7306 12.1329 10.7975 12.197C10.8643 12.261 10.955 12.297 11.0495 12.297H12.9505C13.045 12.297 13.1357 12.261 13.2025 12.197C13.2694 12.1329 13.3069 12.046 13.3069 11.9555V10.1337C13.3069 10.0431 13.2694 9.95619 13.2025 9.89213C13.1357 9.82807 13.045 9.79208 12.9505 9.79208ZM12.5941 11.6139H11.406V10.4753H12.5941V11.6139Z" fill="#393F35" fill-opacity="0.8"/>
    <path d="M17.2277 9.79208H15.3267C15.2322 9.79208 15.1415 9.82807 15.0747 9.89213C15.0079 9.95619 14.9703 10.0431 14.9703 10.1337V11.9555C14.9703 12.046 15.0079 12.1329 15.0747 12.197C15.1415 12.261 15.2322 12.297 15.3267 12.297H17.2277C17.3223 12.297 17.4129 12.261 17.4798 12.197C17.5466 12.1329 17.5842 12.046 17.5842 11.9555V10.1337C17.5842 10.0431 17.5466 9.95619 17.4798 9.89213C17.4129 9.82807 17.3223 9.79208 17.2277 9.79208ZM16.8713 11.6139H15.6832V10.4753H16.8713V11.6139Z" fill="#393F35" fill-opacity="0.8"/>
    <path d="M8.43565 13.8911H6.53466C6.44013 13.8911 6.34947 13.9271 6.28262 13.9911C6.21578 14.0552 6.17822 14.1421 6.17822 14.2327V16.0544C6.17822 16.145 6.21578 16.2319 6.28262 16.296C6.34947 16.36 6.44013 16.396 6.53466 16.396H8.43565C8.53018 16.396 8.62084 16.36 8.68769 16.296C8.75453 16.2319 8.79208 16.145 8.79208 16.0544V14.2327C8.79208 14.1421 8.75453 14.0552 8.68769 13.9911C8.62084 13.9271 8.53018 13.8911 8.43565 13.8911ZM8.07921 15.7129H6.89109V14.5743H8.07921V15.7129Z" fill="#393F35" fill-opacity="0.8"/>
    <path d="M12.9505 13.8911H11.0495C10.955 13.8911 10.8643 13.9271 10.7975 13.9911C10.7306 14.0552 10.6931 14.1421 10.6931 14.2327V16.0544C10.6931 16.145 10.7306 16.2319 10.7975 16.296C10.8643 16.36 10.955 16.396 11.0495 16.396H12.9505C13.045 16.396 13.1357 16.36 13.2025 16.296C13.2694 16.2319 13.3069 16.145 13.3069 16.0544V14.2327C13.3069 14.1421 13.2694 14.0552 13.2025 13.9911C13.1357 13.9271 13.045 13.8911 12.9505 13.8911ZM12.5941 15.7129H11.406V14.5743H12.5941V15.7129Z" fill="#393F35" fill-opacity="0.8"/>
    <path d="M17.2277 13.8911H15.3267C15.2322 13.8911 15.1415 13.9271 15.0747 13.9911C15.0079 14.0552 14.9703 14.1421 14.9703 14.2327V16.0544C14.9703 16.145 15.0079 16.2319 15.0747 16.296C15.1415 16.36 15.2322 16.396 15.3267 16.396H17.2277C17.3223 16.396 17.4129 16.36 17.4798 16.296C17.5466 16.2319 17.5842 16.145 17.5842 16.0544V14.2327C17.5842 14.1421 17.5466 14.0552 17.4798 13.9911C17.4129 13.9271 17.3223 13.8911 17.2277 13.8911ZM16.8713 15.7129H15.6832V14.5743H16.8713V15.7129Z" fill="#393F35" fill-opacity="0.8"/>
    <path d="M19.8416 4.07395H17.8218V3.67316C17.8218 3.35668 17.6906 3.05317 17.4571 2.82939C17.2236 2.60561 16.9069 2.47989 16.5766 2.47989H16.4507C16.1209 2.48049 15.8048 2.60648 15.5718 2.83019C15.3388 3.05391 15.2079 3.35708 15.2079 3.67316V4.07395H13.3069V3.67316C13.3069 3.35668 13.1757 3.05317 12.9422 2.82939C12.7087 2.60561 12.392 2.47989 12.0618 2.47989H11.9358C11.606 2.48049 11.2899 2.60648 11.0569 2.83019C10.8239 3.05391 10.6931 3.35708 10.6931 3.67316V4.07395H8.55445V3.67316C8.55445 3.35668 8.42326 3.05317 8.18975 2.82939C7.95624 2.60561 7.63953 2.47989 7.3093 2.47989H7.18336C6.85354 2.48049 6.53744 2.60648 6.30444 2.83019C6.07144 3.05391 5.94058 3.35708 5.94059 3.67316V4.07395H4.15841C4.06387 4.07395 3.97321 4.10994 3.90637 4.174C3.83952 4.23806 3.80197 4.32494 3.80197 4.41553V19.4452C3.80197 19.5358 3.83952 19.6227 3.90637 19.6868C3.97321 19.7508 4.06387 19.7868 4.15841 19.7868H19.8416C19.9361 19.7868 20.0268 19.7508 20.0936 19.6868C20.1605 19.6227 20.198 19.5358 20.198 19.4452V4.41553C20.198 4.32494 20.1605 4.23806 20.0936 4.174C20.0268 4.10994 19.9361 4.07395 19.8416 4.07395ZM15.9208 3.67316C15.9208 3.53787 15.9769 3.40812 16.0767 3.31246C16.1765 3.2168 16.3119 3.16306 16.4531 3.16306H16.579C16.7198 3.16366 16.8545 3.21767 16.9538 3.31326C17.0532 3.40886 17.1089 3.53826 17.1089 3.67316V5.38791C17.1089 5.5232 17.0528 5.65294 16.953 5.7486C16.8532 5.84427 16.7178 5.89801 16.5766 5.89801H16.4507C16.3099 5.89741 16.1752 5.8434 16.0758 5.7478C15.9765 5.6522 15.9208 5.5228 15.9208 5.38791V3.67316ZM11.4059 3.67316C11.4059 3.53787 11.462 3.40812 11.5618 3.31246C11.6617 3.2168 11.797 3.16306 11.9382 3.16306H12.0641C12.2049 3.16366 12.3397 3.21767 12.439 3.31326C12.5383 3.40886 12.5941 3.53826 12.5941 3.67316V5.38791C12.5941 5.5232 12.538 5.65294 12.4382 5.7486C12.3383 5.84427 12.2029 5.89801 12.0618 5.89801H11.9358C11.7951 5.89741 11.6603 5.8434 11.561 5.7478C11.4617 5.6522 11.4059 5.5228 11.4059 5.38791V3.67316ZM6.65346 3.67316C6.65346 3.53787 6.70954 3.40812 6.80936 3.31246C6.90918 3.2168 7.04457 3.16306 7.18573 3.16306H7.31167C7.45243 3.16366 7.58721 3.21767 7.68652 3.31326C7.78582 3.40886 7.84158 3.53826 7.84158 3.67316V5.38791C7.84158 5.5232 7.7855 5.65294 7.68567 5.7486C7.58585 5.84427 7.45047 5.89801 7.3093 5.89801H7.18336C7.0426 5.89741 6.90782 5.8434 6.80852 5.7478C6.70921 5.6522 6.65346 5.5228 6.65346 5.38791V3.67316ZM19.4851 19.1037H4.51484V4.75712H5.94059V5.38563C5.94059 5.70211 6.07177 6.00562 6.30528 6.2294C6.53879 6.45318 6.8555 6.5789 7.18573 6.5789H7.31167C7.64109 6.5783 7.95682 6.45262 8.18975 6.2294C8.42268 6.00618 8.55382 5.70359 8.55445 5.38791V4.75712H10.6931V5.38563C10.6931 5.70211 10.8242 6.00562 11.0578 6.2294C11.2913 6.45318 11.608 6.5789 11.9382 6.5789H12.0641C12.3936 6.5783 12.7093 6.45262 12.9422 6.2294C13.1752 6.00618 13.3063 5.70359 13.3069 5.38791V4.75712H15.2079V5.38563C15.2079 5.70211 15.3391 6.00562 15.5726 6.2294C15.8061 6.45318 16.1228 6.5789 16.4531 6.5789H16.579C16.9084 6.5783 17.2242 6.45262 17.4571 6.2294C17.69 6.00618 17.8211 5.70359 17.8218 5.38791V4.75712H19.4851V19.1037Z" fill="#393F35" fill-opacity="0.8"/>
</svg>
