<svg width="24" height="24" viewBox="0 0 24 24" fill="none" xmlns="http://www.w3.org/2000/svg">
    <path d="M13.8749 16.8713L17.375 11.2372C17.3863 11.2192 17.3959 11.2001 17.4036 11.1802C18.0116 10.1881 18.3359 9.04825 18.3412 7.88466C18.3464 6.72107 18.0324 5.57833 17.4333 4.5808C16.8342 3.58328 15.973 2.76919 14.9434 2.22714C13.9137 1.68509 12.7551 1.43585 11.5937 1.50653C10.095 1.60832 8.67953 2.23275 7.59396 3.27099C6.50839 4.30923 5.82153 5.69546 5.65307 7.18812C5.50259 8.58321 5.82114 9.98868 6.55842 11.1826C6.56566 11.2007 6.57441 11.2182 6.58455 11.2348L9.94931 16.8713C7.32356 17.2467 5.59604 18.3469 5.59604 19.6895C5.59604 21.3362 8.39525 22.6289 11.9715 22.6289C15.5477 22.6289 18.3446 21.3362 18.3446 19.6871C18.3446 18.3208 16.5719 17.2182 13.8749 16.8713ZM7.19287 10.8594C6.51528 9.78839 6.22045 8.51944 6.35644 7.2594C6.50813 5.93297 7.12038 4.70181 8.08652 3.78039C9.05266 2.85898 10.3114 2.30573 11.6436 2.21703C12.68 2.15411 13.7137 2.37822 14.631 2.86471C15.5483 3.3512 16.3137 4.08124 16.843 4.97453C17.3723 5.86783 17.645 6.88979 17.6311 7.92802C17.6172 8.96626 17.3173 9.98057 16.7644 10.8594C16.753 10.8782 16.7434 10.8981 16.7358 10.9188L11.8812 18.72L10.8475 16.9877L7.22614 10.9307C7.21777 10.9058 7.20661 10.8818 7.19287 10.8594ZM11.9691 21.9113C8.64238 21.9113 6.30653 20.7374 6.30653 19.6847C6.30653 18.7176 8.02931 17.8123 10.3461 17.5461L11.5699 19.5945C11.6012 19.6468 11.6453 19.6902 11.6982 19.7205C11.751 19.7509 11.8107 19.7672 11.8717 19.7679C11.9322 19.7677 11.9916 19.7521 12.0444 19.7226C12.0972 19.6931 12.1416 19.6506 12.1735 19.5992L13.4519 17.5438C15.8448 17.798 17.6246 18.7057 17.6246 19.6943C17.6317 20.7398 15.3077 21.9137 11.9691 21.9137V21.9113Z" fill="#393F35" fill-opacity="0.8"/>
    <path d="M11.9691 10.0776C12.4269 10.0776 12.8743 9.94187 13.2549 9.68756C13.6356 9.43324 13.9322 9.07177 14.1074 8.64886C14.2826 8.22595 14.3284 7.76059 14.2391 7.31163C14.1498 6.86267 13.9294 6.45027 13.6057 6.12659C13.282 5.80291 12.8696 5.58248 12.4206 5.49317C11.9717 5.40387 11.5063 5.4497 11.0834 5.62488C10.6605 5.80005 10.299 6.0967 10.0447 6.47731C9.79039 6.85792 9.65465 7.3054 9.65465 7.76316C9.65528 8.37679 9.89932 8.96512 10.3332 9.39903C10.7671 9.83294 11.3555 10.077 11.9691 10.0776ZM11.9691 6.16157C12.2859 6.16157 12.5955 6.2555 12.8589 6.43149C13.1223 6.60747 13.3276 6.85761 13.4488 7.15026C13.57 7.44291 13.6017 7.76493 13.5399 8.07561C13.4781 8.38629 13.3256 8.67166 13.1016 8.89565C12.8776 9.11963 12.5922 9.27217 12.2816 9.33397C11.9709 9.39576 11.6489 9.36405 11.3562 9.24283C11.0636 9.12161 10.8134 8.91633 10.6374 8.65295C10.4615 8.38957 10.3675 8.07992 10.3675 7.76316C10.3681 7.33858 10.5371 6.93158 10.8373 6.63136C11.1375 6.33114 11.5445 6.1622 11.9691 6.16157Z" fill="#393F35" fill-opacity="0.8"/>
</svg>
