<svg width="18" height="18" viewBox="0 0 18 18" fill="none" xmlns="http://www.w3.org/2000/svg">
    <path d="M12.8107 1.5C14.814 1.52325 16.5 3.5745 16.5 6C16.5 9.8295 11.6475 14.2268 8.99925 16.1947C6.3495 14.2305 1.5 9.84 1.5 6C1.5 3.5745 3.186 1.52325 5.1885 1.5C7.1895 1.63125 7.4445 2.10075 9 3.65925C10.5518 2.1045 10.8135 1.62975 12.8107 1.5ZM12.6832 0.00450003L12.684 0C11.2448 0 9.94425 0.58875 9 1.536C8.05575 0.58875 6.75525 0 5.316 0L5.31675 0.00450003C2.283 -0.048 0 2.78925 0 6C0 12 8.9535 18 8.9535 18H9.0465C9.0465 18 18 12 18 6C18 2.78475 15.7132 -0.048 12.6832 0.00450003Z" fill="#393F35" fill-opacity="0.6"/>
</svg>
